# xmcd
#
# Track frame offsets: 
#        150
#        6921
#        17825
#        30607
#        39166
#        48531
#        56844
#        66170
#        75968
#        85230
#        93876
#        104096
#        118341
#        124340
#        134504
#        144652
#        154941
#        170144
#        182796
#        207708
#        218729
#        234276
#        245089
#        256149
#        269464
#        280543
#        302869
#        319412
#
# Disc length: 4507 seconds
#
# Revision: 2
# Processed by: cddbd v1.5.2PL0 Copyright (c) Steve Scherf et al.
# Submitted via: ExactAudioCopy v1.1
#
DISCID=a311991c
DTITLE=The Dillards - CD1_Back Porch Bluegrass (1963) - !!!Live!!!Almos
DTITLE=t!!! (1964)
DYEAR=2014
DGENRE=Bluegrass
TTITLE0=Old Joseph
TTITLE1=Somebody Touched Me
TTITLE2=Polly Vaughn
TTITLE3=Banjo In The Hollow
TTITLE4=Dooley
TTITLE5=Lonesome Indian
TTITLE6=Ground Hog
TTITLE7=Old Home Place
TTITLE8=Hickory Hollow
TTITLE9=Old Man At The Mill
TTITLE10=Doug's Tune
TTITLE11=Rainin' Here This Mornin'
TTITLE12=Cold Trailin'
TTITLE13=Reuben's Train
TTITLE14=Deulin' Banjo
TTITLE15=Black Eyed Susie
TTITLE16=Never See My Home Again
TTITLE17=There Is A Time
TTITLE18=Old Blue
TTITLE19=Sinkin' Creek
TTITLE20=Whole World Round
TTITLE21=Liberty
TTITLE22=Dixie Breakdown
TTITLE23=Walkin' Down The Line
TTITLE24=Jody's Tune
TTITLE25=Pretty Polly
TTITLE26=Taters In Sandy Lane
TTITLE27=Buckin Mule
EXTD=
EXTT0=
EXTT1=
EXTT2=
EXTT3=
EXTT4=
EXTT5=
EXTT6=
EXTT7=
EXTT8=
EXTT9=
EXTT10=
EXTT11=
EXTT12=
EXTT13=
EXTT14=
EXTT15=
EXTT16=
EXTT17=
EXTT18=
EXTT19=
EXTT20=
EXTT21=
EXTT22=
EXTT23=
EXTT24=
EXTT25=
EXTT26=
EXTT27=
PLAYORDER=
